# xmcd CD database file generated by freedbAccess_ocx
#
# Track frame offsets:
#       182
#       13712
#       24485
#       37237
#       42650
#       54125
#       63582
#       74972
#       86212
#       99312
#       110447
#       120675
#       133527
#       145565
#       155345
#       170027
#       182412
#       195007
#       207550
#       219937
#       231632
#       242532
#       255380
#       268355
#
# Disc length: 3759 seconds
#
# Revision: 0
# Processed by: cddbd v1.4PL0 Copyright (c) Steve Scherf et al.
# Submitted via: CDnGo 1.95
#
DISCID=610ead18
DTITLE=Various Artist - The Complete No 1's Of Country Disc 3
DYEAR=1997
DGENRE=Country
TTITLE0=Bobby Helms - My Specal Angel
TTITLE1=Hank Locklin - Please Help Me, I', Falling
TTITLE2=Johnny Horton - North To Alaska
TTITLE3=Hank Locklin - Let Me Be The One
TTITLE4=Don Gibson - Oh Lonesome Me
TTITLE5=Lester Flatt and Earl Scrubbs - The Ballad Od Jed Clampett
TTITLE6=Johnny Horton - Battle Of New Orleans
TTITLE7=Stonewall Jackson - Waterloo
TTITLE8=Jerry Lee Lewis - Whole Lotta Shakin' Goin' On
TTITLE9=Marty Robbins - Singing The Blues
TTITLE10=Carl Perkins - Blue Suede Shoes
TTITLE11=Johnny Cash - Folsom Prison Blues
TTITLE12=Hawkshaw Hawkins - Lonesome 7 7203
TTITLE13=Jimmy Dean - The First Thing Ev'ry Morning
TTITLE14=Marty Robbins - Don't Worry
TTITLE15=Johnny Cash - I Walk The Line
TTITLE16=Hank Snow - I've Been Everywhere
TTITLE17=Skeets McDonald - Don't Let The Stars Get In Your Eyes
TTITLE18=Hank Thompson - The Wild Side Of Life
TTITLE19=Porter Wagoner - Misery Loves Company
TTITLE20=Hank Snow - Let Me Go, Lover!
TTITLE21=Jim Reeves - Four Walls
TTITLE22=The Browns - The Three Bells
TTITLE23=Patsy Cline - She's Got You
EXTD=
EXTT0=
EXTT1=
EXTT2=
EXTT3=
EXTT4=
EXTT5=
EXTT6=
EXTT7=
EXTT8=
EXTT9=
EXTT10=
EXTT11=
EXTT12=
EXTT13=
EXTT14=
EXTT15=
EXTT16=
EXTT17=
EXTT18=
EXTT19=
EXTT20=
EXTT21=
EXTT22=
EXTT23=
PLAYORDER=
